<svg width="82" height="82" viewBox="0 0 82 82" fill="none" xmlns="http://www.w3.org/2000/svg">
<g filter="url(#filter0_d_4016_151)">
<circle cx="41" cy="41" r="26" fill="url(#paint0_linear_4016_151)"/>
</g>
<path d="M38.625 45.7251V45.5227C38.6392 44.2017 38.7706 43.1506 39.0192 42.3693C39.2749 41.5881 39.6371 40.956 40.1058 40.473C40.5746 39.9901 41.1392 39.5497 41.7997 39.152C42.2259 38.8821 42.6094 38.5803 42.9503 38.2464C43.2912 37.9126 43.5611 37.5291 43.7599 37.0959C43.9588 36.6626 44.0582 36.1832 44.0582 35.6577C44.0582 35.0256 43.9091 34.4787 43.6108 34.017C43.3125 33.5554 42.9148 33.2003 42.4176 32.9517C41.9276 32.696 41.3807 32.5682 40.777 32.5682C40.2301 32.5682 39.7081 32.6818 39.2109 32.9091C38.7138 33.1364 38.3018 33.4915 37.9751 33.9744C37.6484 34.4503 37.4602 35.0646 37.4105 35.8175H34.1719C34.2216 34.5391 34.5447 33.4595 35.1413 32.5788C35.7379 31.6911 36.5263 31.0199 37.5064 30.5653C38.4936 30.1108 39.5838 29.8835 40.777 29.8835C42.0838 29.8835 43.2273 30.1286 44.2074 30.6186C45.1875 31.1016 45.9474 31.7798 46.4872 32.6534C47.0341 33.5199 47.3075 34.532 47.3075 35.6896C47.3075 36.4851 47.1832 37.2024 46.9347 37.8416C46.6861 38.4737 46.331 39.0384 45.8693 39.5355C45.4148 40.0327 44.8679 40.473 44.2287 40.8565C43.625 41.233 43.1349 41.6236 42.7585 42.0284C42.3892 42.4332 42.1193 42.9126 41.9489 43.4666C41.7784 44.0206 41.6861 44.706 41.6719 45.5227V45.7251H38.625ZM40.2337 52.2024C39.6513 52.2024 39.1506 51.9964 38.7315 51.5845C38.3125 51.1655 38.103 50.6612 38.103 50.0717C38.103 49.4893 38.3125 48.9922 38.7315 48.5803C39.1506 48.1612 39.6513 47.9517 40.2337 47.9517C40.8089 47.9517 41.3061 48.1612 41.7251 48.5803C42.1513 48.9922 42.3643 49.4893 42.3643 50.0717C42.3643 50.4624 42.2649 50.821 42.0661 51.1477C41.8743 51.4673 41.6186 51.723 41.299 51.9148C40.9794 52.1065 40.6243 52.2024 40.2337 52.2024Z" fill="white"/>
<defs>
<filter id="filter0_d_4016_151" x="0.3" y="0.3" width="81.4" height="81.4" filterUnits="userSpaceOnUse" color-interpolation-filters="sRGB">
<feFlood flood-opacity="0" result="BackgroundImageFix"/>
<feColorMatrix in="SourceAlpha" type="matrix" values="0 0 0 0 0 0 0 0 0 0 0 0 0 0 0 0 0 0 127 0" result="hardAlpha"/>
<feOffset/>
<feGaussianBlur stdDeviation="7.35"/>
<feComposite in2="hardAlpha" operator="out"/>
<feColorMatrix type="matrix" values="0 0 0 0 0 0 0 0 0 0 0 0 0 0 0 0 0 0 0.25 0"/>
<feBlend mode="normal" in2="BackgroundImageFix" result="effect1_dropShadow_4016_151"/>
<feBlend mode="normal" in="SourceGraphic" in2="effect1_dropShadow_4016_151" result="shape"/>
</filter>
<linearGradient id="paint0_linear_4016_151" x1="15" y1="15" x2="67" y2="67" gradientUnits="userSpaceOnUse">
<stop stop-color="#F9560D"/>
<stop offset="1" stop-color="#F2C81F"/>
</linearGradient>
</defs>
</svg>
